<svg width="652" height="94" viewBox="0 0 652 94" fill="none" xmlns="http://www.w3.org/2000/svg">
<path d="M70.3479 92.0498C68.7159 87.6293 67.1697 83.3822 65.7095 79.3084C64.2493 75.2347 62.8321 71.2476 61.4577 67.3472H18.0379C16.5777 71.2476 15.1175 75.2347 13.6573 79.3084C12.1971 83.3822 10.6939 87.6293 9.1478 92.0498H0C3.43579 82.6888 6.65685 73.9779 9.66317 65.917C12.6695 57.7695 15.5899 50.0987 18.4244 42.9046C21.3449 35.6238 24.2223 28.6464 27.0569 21.9723C29.8914 15.2983 32.8977 8.62425 36.0758 1.95021H43.8064C46.9845 8.62425 49.9908 15.2983 52.8253 21.9723C55.6598 28.6464 58.4944 35.6238 61.3289 42.9046C64.2493 50.0987 67.2127 57.7695 70.219 65.917C73.2253 73.9779 76.4893 82.6888 80.011 92.0498H70.3479ZM39.6834 12.0913C36.4194 19.5454 33.2413 27.1295 30.1491 34.8437C27.1428 42.5579 24.0076 50.8787 20.7436 59.8064H58.7521C55.4881 50.8787 52.3099 42.5579 49.2177 34.8437C46.1255 27.1295 42.9474 19.5454 39.6834 12.0913Z" fill="#870541"/>
<path d="M153.66 92.0498C152.028 89.0161 149.924 85.4624 147.347 81.3887C144.856 77.3149 142.108 72.9811 139.101 68.3873C136.095 63.7068 132.917 58.9396 129.567 54.0858C126.217 49.1452 122.867 44.3781 119.517 39.7842C116.253 35.1037 113.032 30.7266 109.854 26.6528C106.762 22.5791 103.97 19.0687 101.479 16.1217V92.0498H92.8469V1.95021H99.8044C104.185 6.89073 108.866 12.6113 113.848 19.112C118.916 25.526 123.855 32.1134 128.665 38.8741C133.475 45.5482 137.942 52.0922 142.065 58.5062C146.273 64.9202 149.709 70.5108 152.372 75.278V1.95021H161.004V92.0498H153.66Z" fill="#870541"/>
<path d="M244.235 92.0498C242.603 87.6293 241.056 83.3822 239.596 79.3084C238.136 75.2347 236.719 71.2476 235.344 67.3472H191.925C190.464 71.2476 189.004 75.2347 187.544 79.3084C186.084 83.3822 184.581 87.6293 183.034 92.0498H173.887C177.322 82.6888 180.544 73.9779 183.55 65.917C186.556 57.7695 189.477 50.0987 192.311 42.9046C195.232 35.6238 198.109 28.6464 200.944 21.9723C203.778 15.2983 206.784 8.62425 209.962 1.95021H217.693C220.871 8.62425 223.877 15.2983 226.712 21.9723C229.547 28.6464 232.381 35.6238 235.216 42.9046C238.136 50.0987 241.099 57.7695 244.106 65.917C247.112 73.9779 250.376 82.6888 253.898 92.0498H244.235ZM213.57 12.0913C210.306 19.5454 207.128 27.1295 204.036 34.8437C201.029 42.5579 197.894 50.8787 194.63 59.8064H232.639C229.375 50.8787 226.197 42.5579 223.104 34.8437C220.012 27.1295 216.834 19.5454 213.57 12.0913Z" fill="#870541"/>
<path d="M287.944 86.3292C294.902 86.3292 300.313 85.0724 304.178 82.5588C308.044 79.9585 309.976 75.7981 309.976 70.0775C309.976 66.7838 309.332 64.0535 308.044 61.8866C306.841 59.633 305.209 57.7695 303.148 56.296C301.086 54.7358 298.724 53.4357 296.061 52.3956C293.399 51.2688 290.607 50.0987 287.687 48.8852C283.993 47.4117 280.686 45.8949 277.766 44.3347C274.845 42.7746 272.354 41.041 270.293 39.1342C268.231 37.1406 266.642 34.887 265.526 32.3734C264.495 29.8598 263.98 26.9129 263.98 23.5325C263.98 15.8183 266.513 9.96772 271.581 5.98063C276.649 1.99354 283.692 0 292.711 0C295.116 0 297.479 0.17335 299.798 0.520049C302.117 0.866753 304.264 1.34347 306.24 1.95021C308.301 2.47026 310.148 3.07699 311.78 3.7704C313.498 4.46381 314.915 5.20055 316.032 5.98063L312.94 13.3914C310.449 11.6579 307.399 10.2711 303.792 9.23098C300.27 8.19087 296.448 7.67081 292.325 7.67081C289.49 7.67081 286.871 7.97418 284.466 8.58091C282.146 9.10097 280.128 10.0111 278.41 11.3112C276.692 12.5247 275.318 14.0848 274.287 15.9917C273.342 17.8986 272.87 20.1955 272.87 22.8824C272.87 25.6561 273.385 27.9963 274.416 29.9032C275.447 31.8101 276.864 33.4569 278.668 34.8437C280.557 36.2305 282.748 37.4873 285.239 38.6141C287.73 39.7409 290.435 40.911 293.356 42.1245C296.877 43.598 300.184 45.0715 303.276 46.545C306.455 48.0184 309.203 49.752 311.522 51.7455C313.842 53.7391 315.688 56.166 317.063 59.0263C318.437 61.8866 319.124 65.397 319.124 69.5574C319.124 77.7049 316.29 83.8156 310.62 87.8894C305.037 91.9631 297.436 94 287.815 94C284.38 94 281.244 93.7833 278.41 93.3499C275.575 92.9166 273.042 92.3965 270.808 91.7898C268.575 91.0964 266.685 90.403 265.139 89.7095C263.593 89.0161 262.391 88.4094 261.532 87.8894L264.366 80.2185C265.225 80.7386 266.385 81.3453 267.845 82.0387C269.305 82.7321 271.023 83.4256 272.999 84.119C274.974 84.7257 277.207 85.2457 279.698 85.6791C282.189 86.1125 284.938 86.3292 287.944 86.3292Z" fill="#870541"/>
<path d="M391.997 1.95021V9.62102H363.394V92.0498H354.633V9.62102H326.03V1.95021H391.997Z" fill="#870541"/>
<path d="M459.265 92.0498C457.633 87.6293 456.087 83.3822 454.627 79.3084C453.167 75.2347 451.749 71.2476 450.375 67.3472H406.955C405.495 71.2476 404.035 75.2347 402.575 79.3084C401.114 83.3822 399.611 87.6293 398.065 92.0498H388.917C392.353 82.6888 395.574 73.9779 398.58 65.917C401.587 57.7695 404.507 50.0987 407.342 42.9046C410.262 35.6238 413.14 28.6464 415.974 21.9723C418.809 15.2983 421.815 8.62425 424.993 1.95021H432.724C435.902 8.62425 438.908 15.2983 441.743 21.9723C444.577 28.6464 447.412 35.6238 450.246 42.9046C453.167 50.0987 456.13 57.7695 459.136 65.917C462.143 73.9779 465.407 82.6888 468.928 92.0498H459.265ZM428.601 12.0913C425.337 19.5454 422.159 27.1295 419.066 34.8437C416.06 42.5579 412.925 50.8787 409.661 59.8064H447.669C444.405 50.8787 441.227 42.5579 438.135 34.8437C435.043 27.1295 431.865 19.5454 428.601 12.0913Z" fill="#870541"/>
<path d="M502.975 86.3292C509.932 86.3292 515.344 85.0724 519.209 82.5588C523.074 79.9585 525.007 75.7981 525.007 70.0775C525.007 66.7838 524.363 64.0535 523.074 61.8866C521.872 59.633 520.24 57.7695 518.178 56.296C516.117 54.7358 513.755 53.4357 511.092 52.3956C508.429 51.2688 505.638 50.0987 502.717 48.8852C499.024 47.4117 495.717 45.8949 492.796 44.3347C489.876 42.7746 487.385 41.041 485.323 39.1342C483.262 37.1406 481.673 34.887 480.556 32.3734C479.526 29.8598 479.01 26.9129 479.01 23.5325C479.01 15.8183 481.544 9.96772 486.612 5.98063C491.68 1.99354 498.723 0 507.742 0C510.147 0 512.509 0.17335 514.828 0.520049C517.148 0.866753 519.295 1.34347 521.27 1.95021C523.332 2.47026 525.179 3.07699 526.811 3.7704C528.529 4.46381 529.946 5.20055 531.062 5.98063L527.97 13.3914C525.479 11.6579 522.43 10.2711 518.822 9.23098C515.301 8.19087 511.478 7.67081 507.356 7.67081C504.521 7.67081 501.901 7.97418 499.496 8.58091C497.177 9.10097 495.158 10.0111 493.441 11.3112C491.723 12.5247 490.348 14.0848 489.318 15.9917C488.373 17.8986 487.9 20.1955 487.9 22.8824C487.9 25.6561 488.416 27.9963 489.446 29.9032C490.477 31.8101 491.894 33.4569 493.698 34.8437C495.588 36.2305 497.778 37.4873 500.269 38.6141C502.76 39.7409 505.466 40.911 508.386 42.1245C511.908 43.598 515.215 45.0715 518.307 46.545C521.485 48.0184 524.234 49.752 526.553 51.7455C528.872 53.7391 530.719 56.166 532.093 59.0263C533.468 61.8866 534.155 65.397 534.155 69.5574C534.155 77.7049 531.32 83.8156 525.651 87.8894C520.068 91.9631 512.466 94 502.846 94C499.41 94 496.275 93.7833 493.441 93.3499C490.606 92.9166 488.072 92.3965 485.839 91.7898C483.606 91.0964 481.716 90.403 480.17 89.7095C478.624 89.0161 477.421 88.4094 476.562 87.8894L479.397 80.2185C480.256 80.7386 481.415 81.3453 482.875 82.0387C484.336 82.7321 486.054 83.4256 488.029 84.119C490.005 84.7257 492.238 85.2457 494.729 85.6791C497.22 86.1125 499.969 86.3292 502.975 86.3292Z" fill="#870541"/>
<path d="M550.337 1.95021H559.099V92.0498H550.337V1.95021Z" fill="#870541"/>
<path d="M642.337 92.0498C640.705 87.6293 639.159 83.3822 637.699 79.3084C636.238 75.2347 634.821 71.2476 633.447 67.3472H590.027C588.567 71.2476 587.107 75.2347 585.646 79.3084C584.186 83.3822 582.683 87.6293 581.137 92.0498H571.989C575.425 82.6888 578.646 73.9779 581.652 65.917C584.658 57.7695 587.579 50.0987 590.413 42.9046C593.334 35.6238 596.211 28.6464 599.046 21.9723C601.88 15.2983 604.887 8.62425 608.065 1.95021H615.795C618.973 8.62425 621.98 15.2983 624.814 21.9723C627.649 28.6464 630.483 35.6238 633.318 42.9046C636.238 50.0987 639.202 57.7695 642.208 65.917C645.214 73.9779 648.478 82.6888 652 92.0498H642.337ZM611.672 12.0913C608.408 19.5454 605.23 27.1295 602.138 34.8437C599.132 42.5579 595.997 50.8787 592.733 59.8064H630.741C627.477 50.8787 624.299 42.5579 621.207 34.8437C618.115 27.1295 614.936 19.5454 611.672 12.0913Z" fill="#870541"/>
</svg>
