<svg width="344" height="56" viewBox="0 0 344 56" fill="none" xmlns="http://www.w3.org/2000/svg">
<path d="M18.4105 1.22824H33.7151L52.1256 54.7725H40.7613L36.4426 40.8506H15.6831L11.3643 54.7725H0L18.4105 1.22824ZM25.3806 9.18316L18.259 32.4368H33.8666L26.745 9.18316H25.3806Z" fill="#000D52"/>
<path d="M78.992 54.7725V25.7818C78.992 23.5381 79.0297 21.8043 79.1059 20.5805C79.1812 19.3567 79.3712 17.7881 79.6743 15.8762C79.9773 13.9636 80.5457 12.2169 81.3787 10.6361C82.2117 9.0553 83.3108 7.55062 84.6745 6.12282C88.5636 1.94138 93.867 -0.0983438 100.585 0.00364236C107.404 0.105629 112.707 2.14535 116.496 6.12282C118.264 7.95857 119.59 10.1262 120.473 12.6248C121.358 15.1235 121.863 17.2013 121.989 18.8589C122.115 20.5158 122.178 22.8493 122.178 25.8579V54.7718H111.42V24.94C111.42 19.3308 110.864 15.5573 109.753 13.6188C107.884 10.3042 104.828 8.64659 100.585 8.64659C96.4941 8.64659 93.4637 10.3042 91.4931 13.6188C90.9375 14.6387 90.5206 15.8625 90.2432 17.2903C89.9658 18.7181 89.8135 19.8658 89.7886 20.7327C89.7638 21.5996 89.7509 23.0023 89.7509 24.94V54.7718H78.9928L78.992 54.7725Z" fill="#000D52"/>
<path d="M167.455 1.22824H182.759L201.17 54.7725H189.806L185.487 40.8506H164.727L160.408 54.7725H149.044L167.455 1.22824ZM174.425 9.18316L167.303 32.4368H182.911L175.789 9.18316H174.425Z" fill="#000D52"/>
<path d="M246.447 1.22824C246.548 1.22824 247.027 1.22824 247.887 1.22824C248.745 1.22824 249.275 1.22824 249.477 1.22824C249.679 1.22824 250.184 1.24118 250.992 1.26629C251.8 1.29141 252.356 1.31729 252.659 1.3424C252.962 1.36752 253.48 1.40633 254.212 1.45733C254.945 1.50832 255.512 1.57225 255.917 1.64836C256.321 1.72447 256.838 1.82646 257.469 1.95432C258.1 2.08142 258.644 2.22222 259.099 2.3752C259.553 2.52818 260.058 2.71922 260.614 2.94906C261.169 3.17891 261.674 3.42094 262.129 3.67591C264.351 4.84875 266.207 6.56958 267.698 8.83915C269.188 11.1087 269.933 13.8494 269.933 17.062C269.933 21.4474 268.392 24.9149 265.311 27.4646C263.947 28.5864 262.305 29.4023 260.386 29.9122C261.497 30.4732 262.356 31.1361 262.962 31.901C263.568 32.6659 264.275 33.8646 265.083 35.4964L273.948 54.7725H262.28L255.613 38.556C254.805 36.4652 253.845 35.0115 252.734 34.1957C251.623 33.4818 249.93 33.1248 247.657 33.1248H239.323V54.7725H228.792V1.22824H246.447ZM239.325 9.18316V25.2468H249.023C252.457 25.2468 254.907 24.6858 256.372 23.564C258.241 22.1362 259.175 20.0196 259.175 17.215C259.175 14.4103 258.241 12.2937 256.372 10.8659C254.857 9.74409 252.382 9.18316 248.947 9.18316H239.325Z" fill="#000D52"/>
<path d="M300.815 1.22824H311.573V30.754C311.573 32.6917 311.586 34.0944 311.611 34.9613C311.636 35.8282 311.788 36.9752 312.065 38.4037C312.343 39.8315 312.76 41.0554 313.315 42.0752C315.083 45.3898 318.114 47.0474 322.407 47.0474C326.65 47.0474 329.706 45.3905 331.575 42.0752C332.686 40.1375 333.242 36.364 333.242 30.754V1.22824H344V30.1421C344 33.1507 343.937 35.4842 343.811 37.1411C343.685 38.7987 343.18 40.8765 342.296 43.3752C341.412 45.8738 340.086 48.0414 338.318 49.8772C334.53 53.8546 329.227 55.8944 322.407 55.9964C315.69 56.0983 310.386 54.0586 306.497 49.8772C305.133 48.4494 304.035 46.9447 303.201 45.3639C302.367 43.7831 301.8 42.0364 301.496 40.1238C301.193 38.2112 301.004 36.6433 300.928 35.4195C300.852 34.1957 300.814 32.4619 300.814 30.2182V1.22748L300.815 1.22824Z" fill="#000D52"/>
</svg>
