<svg width="76" height="76" viewBox="0 0 76 76" fill="none" xmlns="http://www.w3.org/2000/svg">
<path d="M38 76C58.9868 76 76 58.9868 76 38C76 17.0132 58.9868 0 38 0C17.0132 0 0 17.0132 0 38C0 58.9868 17.0132 76 38 76Z" fill="url(#paint0_linear_30_288)"/>
<path fill-rule="evenodd" clip-rule="evenodd" d="M17.201 37.5989C28.2787 32.7724 35.6657 29.5906 39.3617 28.0533C49.9147 23.6639 52.1076 22.9014 53.5368 22.8762C53.8512 22.8707 54.554 22.9486 55.0093 23.318C55.3937 23.63 55.4995 24.0514 55.5501 24.3471C55.6007 24.6429 55.6638 25.3166 55.6137 25.8431C55.0418 31.8518 52.5673 46.4333 51.3084 53.1631C50.7758 56.0108 49.7269 56.9656 48.7115 57.059C46.5048 57.2621 44.8291 55.6007 42.6918 54.1996C39.3473 52.0073 37.4578 50.6425 34.2114 48.5032C30.4596 46.0308 32.8918 44.6719 35.0299 42.4512C35.5895 41.87 45.3124 33.0263 45.5005 32.224C45.5241 32.1237 45.5459 31.7497 45.3237 31.5522C45.1015 31.3547 44.7736 31.4222 44.537 31.4759C44.2015 31.5521 38.8586 35.0835 28.5083 42.0702C26.9918 43.1116 25.6181 43.619 24.3874 43.5924C23.0306 43.5631 20.4207 42.8253 18.4804 42.1946C16.1007 41.421 14.2093 41.012 14.374 39.6983C14.4598 39.014 15.4021 38.3142 17.201 37.5989Z" fill="white"/>
<defs>
<linearGradient id="paint0_linear_30_288" x1="38" y1="0" x2="38" y2="75.4363" gradientUnits="userSpaceOnUse">
<stop stop-color="#000D52"/>
<stop offset="1" stop-color="#229ED9"/>
</linearGradient>
</defs>
</svg>
