<svg width="74" height="74" viewBox="0 0 74 74" fill="none" xmlns="http://www.w3.org/2000/svg">
<g clip-path="url(#clip0_29_284)">
<path d="M0 35.8432C0 19.2393 0 10.9374 5.15815 5.77925C10.3163 0.621094 18.6182 0.621094 35.2221 0.621094H38.1572C54.7611 0.621094 63.0629 0.621094 68.2212 5.77925C73.3793 10.9374 73.3793 19.2393 73.3793 35.8432V38.7783C73.3793 55.3822 73.3793 63.684 68.2212 68.8423C63.0629 74.0004 54.7611 74.0004 38.1572 74.0004H35.2221C18.6182 74.0004 10.3163 74.0004 5.15815 68.8423C0 63.684 0 55.3822 0 38.7783V35.8432Z" fill="url(#paint0_linear_29_284)"/>
<path d="M39.0439 53.4846C22.3195 53.4846 12.7804 42.0191 12.3829 22.9404H20.7604C21.0355 36.9436 27.2115 42.8751 32.1034 44.0981V22.9404H39.992V35.0174C44.8228 34.4977 49.8976 28.9942 51.6098 22.9404H59.4982C58.1835 30.4007 52.6801 35.9041 48.7665 38.1666C52.6801 40.0011 58.9482 44.8014 61.333 53.4846H52.6495C50.7844 47.6754 46.1375 43.1809 39.992 42.5694V53.4846H39.0439Z" fill="white"/>
</g>
<defs>
<linearGradient id="paint0_linear_29_284" x1="36.6897" y1="0.621094" x2="36.6897" y2="73.4562" gradientUnits="userSpaceOnUse">
<stop stop-color="#000D52"/>
<stop offset="1" stop-color="#229ED9"/>
</linearGradient>
<clipPath id="clip0_29_284">
<rect width="73.3793" height="73.3793" fill="white" transform="translate(0 0.621094)"/>
</clipPath>
</defs>
</svg>
