<svg width="74" height="74" viewBox="0 0 74 74" fill="none" xmlns="http://www.w3.org/2000/svg">
<path d="M0.413818 35.8432C0.413818 19.2393 0.413818 10.9374 5.57197 5.77925C10.7301 0.621094 19.032 0.621094 35.6359 0.621094H38.5711C55.175 0.621094 63.4768 0.621094 68.635 5.77925C73.7931 10.9374 73.7931 19.2393 73.7931 35.8432V38.7783C73.7931 55.3822 73.7931 63.684 68.635 68.8423C63.4768 74.0004 55.175 74.0004 38.5711 74.0004H35.6359C19.032 74.0004 10.7301 74.0004 5.57197 68.8423C0.413818 63.684 0.413818 55.3822 0.413818 38.7783V35.8432Z" fill="url(#paint0_linear_30_301)"/>
<path fill-rule="evenodd" clip-rule="evenodd" d="M37.7414 17.3535C32.8735 17.1967 28.1163 18.8375 24.3622 21.968C20.6081 25.0985 18.1152 29.5034 17.3512 34.3564C16.5871 39.2094 17.6044 44.177 20.2123 48.327L20.6054 48.9527L18.8666 57.0979L26.8153 54.8423L27.4586 55.1996C31.7252 57.5693 36.7022 58.2868 41.4558 57.2175C46.2094 56.1481 50.4129 53.3655 53.2776 49.3916C56.1424 45.4177 57.4715 40.5257 57.0156 35.6334C56.5598 30.7412 54.3503 26.1848 50.8017 22.8192C47.2531 19.4537 42.6092 17.5102 37.7414 17.3535ZM22.0777 19.1787C26.5049 15.4869 32.1151 13.5519 37.8557 13.7367C43.5964 13.9215 49.0729 16.2135 53.2578 20.1826C57.4428 24.1516 60.0485 29.5251 60.5861 35.2947C61.1237 41.0644 59.5562 46.8337 56.1777 51.5201C52.7993 56.2066 47.842 59.4883 42.2361 60.7493C36.8734 61.9557 31.2696 61.2337 26.3887 58.7223L14.1074 62.2074L16.794 49.6225C14.008 44.8625 12.9474 39.2638 13.8094 33.7887C14.7105 28.0654 17.6504 22.8705 22.0777 19.1787Z" fill="white"/>
<path d="M44.545 41.6102C44.08 41.2924 43.615 41.1336 43.15 41.7691L41.29 44.3111C40.825 44.6289 40.515 44.7878 39.895 44.47C37.57 43.199 34.315 41.7691 31.525 37.0027C31.37 36.3672 31.68 36.0494 31.99 35.7317L33.385 33.5074C33.695 33.1896 33.54 32.8719 33.385 32.5541L31.525 27.9466C31.06 26.6756 30.595 26.8345 30.13 26.8345H28.89C28.58 26.8345 27.96 26.9934 27.34 27.6289C23.93 31.1242 25.325 36.0494 27.805 39.227C28.27 39.8625 31.37 45.5822 38.035 48.6009C42.995 50.8252 44.08 50.5074 45.475 50.1896C47.18 50.0308 48.885 48.6009 49.66 47.1709C49.815 46.6943 50.59 44.6289 49.97 44.3111" fill="white"/>
<defs>
<linearGradient id="paint0_linear_30_301" x1="37.1035" y1="0.621094" x2="37.1035" y2="73.4562" gradientUnits="userSpaceOnUse">
<stop stop-color="#000D52"/>
<stop offset="1" stop-color="#229ED9"/>
</linearGradient>
</defs>
</svg>
