<svg width="652" height="94" fill="none" xmlns="http://www.w3.org/2000/svg"><path d="M70.348 92.05a1415.48 1415.48 0 0 1-4.638-12.742c-1.46-4.073-2.878-8.06-4.252-11.96h-43.42c-1.46 3.9-2.92 7.887-4.38 11.96a1753.86 1753.86 0 0 0-4.51 12.742H0a5373.824 5373.824 0 0 1 9.663-26.133 1130.477 1130.477 0 0 1 8.761-23.012 1124.68 1124.68 0 0 1 8.633-20.933A513.16 513.16 0 0 1 36.076 1.95h7.73a513.16 513.16 0 0 1 9.02 20.022 744.962 744.962 0 0 1 8.503 20.933 769.518 769.518 0 0 1 8.89 23.012c3.006 8.06 6.27 16.772 9.792 26.133h-9.663ZM39.683 12.09a783.339 783.339 0 0 0-9.534 22.753 1268.933 1268.933 0 0 0-9.405 24.962h38.008c-3.264-8.927-6.442-17.248-9.534-24.962a783.339 783.339 0 0 0-9.535-22.753ZM153.66 92.05c-1.632-3.034-3.736-6.588-6.313-10.661a501.915 501.915 0 0 0-8.246-13.002 517.947 517.947 0 0 0-9.534-14.301 511.95 511.95 0 0 0-10.05-14.302 305.056 305.056 0 0 0-9.663-13.131c-3.092-4.074-5.884-7.584-8.375-10.531V92.05h-8.632V1.95h6.957c4.381 4.94 9.062 10.661 14.044 17.162a490.806 490.806 0 0 1 14.817 19.762 447.47 447.47 0 0 1 13.4 19.632c4.208 6.414 7.644 12.005 10.307 16.772V1.95h8.632v90.1h-7.344Zm90.575 0a1424.38 1424.38 0 0 1-4.639-12.742 2436.54 2436.54 0 0 1-4.252-11.96h-43.419a893.337 893.337 0 0 0-4.381 11.96c-1.46 4.074-2.963 8.321-4.51 12.742h-9.147a5325.847 5325.847 0 0 1 9.663-26.133 1131.528 1131.528 0 0 1 8.761-23.012 1124.562 1124.562 0 0 1 8.633-20.933 512.537 512.537 0 0 1 9.018-20.022h7.731a514.06 514.06 0 0 1 9.019 20.022 744.942 744.942 0 0 1 8.504 20.933 772.534 772.534 0 0 1 8.89 23.012 9595.54 9595.54 0 0 0 9.792 26.133h-9.663ZM213.57 12.09a782.78 782.78 0 0 0-9.534 22.753 1264.369 1264.369 0 0 0-9.406 24.962h38.009c-3.264-8.927-6.442-17.248-9.535-24.962a782.78 782.78 0 0 0-9.534-22.753Zm74.374 74.24c6.958 0 12.369-1.258 16.234-3.771 3.866-2.6 5.798-6.76 5.798-12.481 0-3.294-.644-6.025-1.932-8.191a16.095 16.095 0 0 0-4.896-5.591c-2.062-1.56-4.424-2.86-7.087-3.9a1388.28 1388.28 0 0 0-8.374-3.51c-3.694-1.474-7.001-2.991-9.921-4.551-2.921-1.56-5.412-3.294-7.473-5.2-2.062-1.994-3.651-4.248-4.767-6.762-1.031-2.513-1.546-5.46-1.546-8.84 0-7.715 2.533-13.565 7.601-17.552S283.692 0 292.711 0c2.405 0 4.768.173 7.087.52 2.319.347 4.466.823 6.442 1.43 2.061.52 3.908 1.127 5.54 1.82 1.718.694 3.135 1.43 4.252 2.21l-3.092 7.411c-2.491-1.733-5.541-3.12-9.148-4.16-3.522-1.04-7.344-1.56-11.467-1.56-2.835 0-5.454.303-7.859.91-2.32.52-4.338 1.43-6.056 2.73-1.718 1.214-3.092 2.774-4.123 4.68-.945 1.908-1.417 4.204-1.417 6.891 0 2.774.515 5.114 1.546 7.021 1.031 1.907 2.448 3.554 4.252 4.94 1.889 1.387 4.08 2.644 6.571 3.771a285.774 285.774 0 0 0 8.117 3.51 225.023 225.023 0 0 1 9.92 4.421c3.179 1.473 5.927 3.207 8.246 5.2 2.32 1.994 4.166 4.421 5.541 7.281 1.374 2.86 2.061 6.371 2.061 10.531 0 8.148-2.834 14.259-8.504 18.332C305.037 91.963 297.436 94 287.815 94c-3.435 0-6.571-.217-9.405-.65-2.835-.433-5.368-.953-7.602-1.56-2.233-.694-4.123-1.387-5.669-2.08-1.546-.694-2.748-1.3-3.607-1.82l2.834-7.671c.859.52 2.019 1.126 3.479 1.82 1.46.693 3.178 1.387 5.154 2.08 1.975.607 4.208 1.127 6.699 1.56 2.491.433 5.24.65 8.246.65ZM391.997 1.95v7.671h-28.603V92.05h-8.761V9.62H326.03V1.95h65.967Zm67.268 90.1a1415.48 1415.48 0 0 1-4.638-12.742 2336.66 2336.66 0 0 1-4.252-11.96h-43.42c-1.46 3.9-2.92 7.887-4.38 11.96a1711.9 1711.9 0 0 0-4.51 12.742h-9.148a5430.824 5430.824 0 0 1 9.663-26.133 1131.332 1131.332 0 0 1 8.762-23.012c2.92-7.281 5.798-14.259 8.632-20.933a514.06 514.06 0 0 1 9.019-20.022h7.731a514.06 514.06 0 0 1 9.019 20.022 744.992 744.992 0 0 1 8.503 20.933 767.082 767.082 0 0 1 8.89 23.012c3.007 8.06 6.271 16.772 9.792 26.133h-9.663Zm-30.664-79.96a785.58 785.58 0 0 0-9.535 22.753 1270.973 1270.973 0 0 0-9.405 24.962h38.008c-3.264-8.927-6.442-17.248-9.534-24.962a782.78 782.78 0 0 0-9.534-22.753Zm74.374 74.24c6.957 0 12.369-1.258 16.234-3.771 3.865-2.6 5.798-6.76 5.798-12.481 0-3.294-.644-6.025-1.933-8.191a16.074 16.074 0 0 0-4.896-5.591c-2.061-1.56-4.423-2.86-7.086-3.9a1389.373 1389.373 0 0 0-8.375-3.51c-3.693-1.474-7-2.991-9.921-4.551-2.92-1.56-5.411-3.294-7.473-5.2-2.061-1.994-3.65-4.248-4.767-6.762-1.03-2.513-1.546-5.46-1.546-8.84 0-7.715 2.534-13.565 7.602-17.552C491.68 1.994 498.723 0 507.742 0c2.405 0 4.767.173 7.086.52 2.32.347 4.467.823 6.442 1.43 2.062.52 3.909 1.127 5.541 1.82 1.718.694 3.135 1.43 4.251 2.21l-3.092 7.411c-2.491-1.733-5.54-3.12-9.148-4.16-3.521-1.04-7.344-1.56-11.466-1.56-2.835 0-5.455.303-7.86.91-2.319.52-4.338 1.43-6.055 2.73-1.718 1.214-3.093 2.774-4.123 4.68-.945 1.908-1.418 4.204-1.418 6.891 0 2.774.516 5.114 1.546 7.021 1.031 1.907 2.448 3.554 4.252 4.94 1.89 1.387 4.08 2.644 6.571 3.771a287.026 287.026 0 0 0 8.117 3.51 224.556 224.556 0 0 1 9.921 4.421c3.178 1.473 5.927 3.207 8.246 5.2 2.319 1.994 4.166 4.421 5.54 7.281 1.375 2.86 2.062 6.371 2.062 10.531 0 8.148-2.835 14.259-8.504 18.332C520.068 91.963 512.466 94 502.846 94c-3.436 0-6.571-.217-9.405-.65-2.835-.433-5.369-.953-7.602-1.56-2.233-.694-4.123-1.387-5.669-2.08-1.546-.694-2.749-1.3-3.608-1.82l2.835-7.671c.859.52 2.018 1.126 3.478 1.82 1.461.693 3.179 1.387 5.154 2.08 1.976.607 4.209 1.127 6.7 1.56 2.491.433 5.24.65 8.246.65Zm47.362-84.38h8.762v90.1h-8.762V1.95Zm92 90.1a1415.48 1415.48 0 0 1-4.638-12.742c-1.461-4.073-2.878-8.06-4.252-11.96h-43.42c-1.46 3.9-2.92 7.887-4.381 11.96-1.46 4.074-2.963 8.321-4.509 12.742h-9.148a5430.824 5430.824 0 0 1 9.663-26.133 1131.528 1131.528 0 0 1 8.761-23.012 1124.562 1124.562 0 0 1 8.633-20.933 512.566 512.566 0 0 1 9.019-20.022h7.73a512.566 512.566 0 0 1 9.019 20.022 744.942 744.942 0 0 1 8.504 20.933 769.799 769.799 0 0 1 8.89 23.012A9595.54 9595.54 0 0 0 652 92.05h-9.663Zm-30.665-79.96a782.78 782.78 0 0 0-9.534 22.753 1270.973 1270.973 0 0 0-9.405 24.962h38.008c-3.264-8.927-6.442-17.248-9.534-24.962a782.785 782.785 0 0 0-9.535-22.753Z" fill="#870541"/></svg>