<svg width="344" height="56" fill="none" xmlns="http://www.w3.org/2000/svg"><path d="M18.41 1.228h15.305l18.41 53.544H40.762l-4.318-13.921h-20.76l-4.319 13.922H0L18.41 1.227Zm6.97 7.955-7.12 23.254h15.608L26.745 9.183h-1.364Zm53.612 45.59V25.782c0-2.244.038-3.978.114-5.201.075-1.224.265-2.793.568-4.705.303-1.912.872-3.66 1.705-5.24.833-1.58 1.932-3.085 3.295-4.513 3.89-4.182 9.193-6.221 15.911-6.12 6.819.103 12.122 2.142 15.911 6.12 1.768 1.836 3.094 4.003 3.977 6.502.885 2.498 1.39 4.576 1.516 6.234.126 1.657.189 3.99.189 6.999v28.914H111.42V24.94c0-5.61-.556-9.383-1.667-11.321-1.869-3.315-4.925-4.972-9.168-4.972-4.09 0-7.121 1.657-9.092 4.972-.555 1.02-.972 2.244-1.25 3.671-.277 1.428-.43 2.576-.454 3.443-.025.867-.038 2.27-.038 4.207v29.832H78.992Zm88.463-53.545h15.304l18.411 53.544h-11.364l-4.319-13.921h-20.76l-4.319 13.922h-11.364l18.411-53.545Zm6.97 7.955-7.122 23.254h15.608l-7.122-23.254h-1.364Zm72.022-7.955h3.03c.202 0 .707.013 1.515.038a38.25 38.25 0 0 1 1.667.076c.303.026.821.064 1.553.115.733.051 1.3.115 1.705.191.404.076.921.178 1.552.306a13.62 13.62 0 0 1 1.63.421c.454.153.959.344 1.515.574.555.23 1.06.472 1.515.727 2.222 1.173 4.078 2.894 5.569 5.163 1.49 2.27 2.235 5.01 2.235 8.223 0 4.385-1.541 7.853-4.622 10.403-1.364 1.121-3.006 1.937-4.925 2.447 1.111.561 1.97 1.224 2.576 1.989.606.765 1.313 1.964 2.121 3.595l8.865 19.276H262.28l-6.667-16.216c-.808-2.09-1.768-3.544-2.879-4.36-1.111-.714-2.804-1.071-5.077-1.071h-8.334v21.648h-10.531V1.227h17.655Zm-7.122 7.955v16.064h9.698c3.434 0 5.884-.561 7.349-1.683 1.869-1.428 2.803-3.544 2.803-6.349s-.934-4.921-2.803-6.35c-1.515-1.12-3.99-1.682-7.425-1.682h-9.622Zm61.49-7.955h10.758v29.526c0 1.938.013 3.34.038 4.207s.177 2.014.454 3.443c.278 1.427.695 2.651 1.25 3.671 1.768 3.315 4.799 4.972 9.092 4.972 4.243 0 7.299-1.656 9.168-4.972 1.111-1.938 1.667-5.711 1.667-11.321V1.228H344v28.914c0 3.009-.063 5.342-.189 7-.126 1.657-.631 3.734-1.515 6.233-.884 2.499-2.21 4.666-3.978 6.502-3.788 3.978-9.091 6.017-15.911 6.12-6.717.101-12.021-1.938-15.91-6.12-1.364-1.428-2.462-2.932-3.296-4.513-.834-1.58-1.401-3.328-1.705-5.24-.303-1.913-.492-3.48-.568-4.705-.076-1.223-.114-2.957-.114-5.2V1.226l.001.001Z" fill="#000D52"/></svg>