<svg width="76" height="76" fill="none" xmlns="http://www.w3.org/2000/svg"><path d="M38 76c20.987 0 38-17.013 38-38S58.987 0 38 0 0 17.013 0 38s17.013 38 38 38Z" fill="url(#a)"/><path fill-rule="evenodd" clip-rule="evenodd" d="M17.201 37.599c11.078-4.827 18.465-8.008 22.16-9.546 10.554-4.39 12.747-5.152 14.176-5.177.314-.005 1.017.073 1.472.442.385.312.49.733.541 1.03.05.295.114.969.064 1.495-.572 6.009-3.047 20.59-4.306 27.32-.532 2.848-1.581 3.803-2.596 3.896-2.207.203-3.883-1.458-6.02-2.86-3.345-2.192-5.234-3.556-8.48-5.696-3.752-2.472-1.32-3.831.818-6.052.56-.581 10.282-9.425 10.47-10.227.024-.1.046-.474-.176-.672-.222-.197-.55-.13-.787-.076-.335.076-5.678 3.608-16.029 10.594-1.516 1.042-2.89 1.549-4.12 1.522-1.357-.029-3.967-.767-5.908-1.397-2.38-.774-4.27-1.183-4.106-2.497.086-.684 1.028-1.384 2.827-2.1Z" fill="#fff"/><defs><linearGradient id="a" x1="38" y1="0" x2="38" y2="75.436" gradientUnits="userSpaceOnUse"><stop stop-color="#000D52"/><stop offset="1" stop-color="#229ED9"/></linearGradient></defs></svg>