<svg width="74" height="74" fill="none" xmlns="http://www.w3.org/2000/svg"><g clip-path="url(#a)"><path d="M0 35.843C0 19.24 0 10.937 5.158 5.78 10.316.621 18.618.621 35.222.621h2.935c16.604 0 24.906 0 30.064 5.158 5.158 5.158 5.158 13.46 5.158 30.064v2.935c0 16.604 0 24.906-5.158 30.064C63.063 74 54.761 74 38.157 74h-2.935c-16.604 0-24.906 0-30.064-5.158C0 63.684 0 55.382 0 38.778v-2.935Z" fill="url(#b)"/><path d="M39.044 53.485c-16.724 0-26.264-11.466-26.661-30.545h8.377c.275 14.004 6.451 19.935 11.343 21.158V22.94h7.889v12.077c4.83-.52 9.906-6.023 11.618-12.077h7.888c-1.314 7.46-6.818 12.964-10.731 15.227C52.68 40 58.947 44.8 61.333 53.485H52.65c-1.866-5.81-6.512-10.304-12.658-10.916v10.916h-.948Z" fill="#fff"/></g><defs><linearGradient id="b" x1="36.69" y1=".621" x2="36.69" y2="73.456" gradientUnits="userSpaceOnUse"><stop stop-color="#000D52"/><stop offset="1" stop-color="#229ED9"/></linearGradient><clipPath id="a"><path fill="#fff" transform="translate(0 .621)" d="M0 0h73.379v73.379H0z"/></clipPath></defs></svg>