<svg width="74" height="74" fill="none" xmlns="http://www.w3.org/2000/svg"><path d="M.414 35.843c0-16.604 0-24.906 5.158-30.064C10.73.621 19.032.621 35.636.621h2.935c16.604 0 24.906 0 30.064 5.158 5.158 5.158 5.158 13.46 5.158 30.064v2.935c0 16.604 0 24.906-5.158 30.064C63.477 74 55.175 74 38.571 74h-2.935c-16.604 0-24.906 0-30.064-5.158C.414 63.684.414 55.382.414 38.778v-2.935Z" fill="url(#a)"/><path fill-rule="evenodd" clip-rule="evenodd" d="M37.741 17.354a19.887 19.887 0 0 0-13.379 4.614 20.22 20.22 0 0 0-7.01 12.388 20.326 20.326 0 0 0 2.86 13.971l.393.626-1.738 8.145 7.948-2.256.644.358a19.845 19.845 0 0 0 13.997 2.017 19.988 19.988 0 0 0 11.822-7.825 20.311 20.311 0 0 0 3.738-13.759 20.248 20.248 0 0 0-6.214-12.814 19.91 19.91 0 0 0-13.06-5.465Zm-15.663 1.825a23.453 23.453 0 0 1 15.778-5.442 23.479 23.479 0 0 1 15.402 6.446 23.879 23.879 0 0 1 7.328 15.112 23.954 23.954 0 0 1-4.408 16.225 23.572 23.572 0 0 1-13.942 9.23 23.398 23.398 0 0 1-15.847-2.028l-12.282 3.485 2.687-12.584a23.977 23.977 0 0 1-2.985-15.834 23.847 23.847 0 0 1 8.269-14.61Z" fill="#fff"/><path d="M44.545 41.61c-.465-.318-.93-.476-1.395.16l-1.86 2.541c-.465.318-.775.477-1.395.159-2.325-1.271-5.58-2.7-8.37-7.467-.155-.636.155-.954.465-1.271l1.395-2.225c.31-.317.155-.635 0-.953l-1.86-4.607c-.465-1.271-.93-1.113-1.395-1.113h-1.24c-.31 0-.93.16-1.55.795-3.41 3.495-2.015 8.42.465 11.598.465.636 3.565 6.355 10.23 9.374 4.96 2.224 6.045 1.906 7.44 1.589 1.705-.16 3.41-1.59 4.185-3.02.155-.476.93-2.541.31-2.859" fill="#fff"/><defs><linearGradient id="a" x1="37.103" y1=".621" x2="37.103" y2="73.456" gradientUnits="userSpaceOnUse"><stop stop-color="#000D52"/><stop offset="1" stop-color="#229ED9"/></linearGradient></defs></svg>